<svg xmlns:mydata="http://www.w3.org/2000/svg" mydata:contrastcolor="00A7B5" mydata:template="Contrast" mydata:presentation="2.5" mydata:layouttype="undefined" mydata:specialfontid="undefined" mydata:id1="012" mydata:id2="012" mydata:companyname="Dhruv Parmar" mydata:companytagline="" version="1.1" xmlns="http://www.w3.org/2000/svg" xmlns:xlink="http://www.w3.org/1999/xlink" viewBox="0 45 550 380">
<rect width="100%" height="100%" fill="white"/>
<svg xmlns:mydata="http://www.w3.org/2000/svg" mydata:contrastcolor="00A7B5" mydata:template="Contrast" mydata:presentation="2.5" mydata:layouttype="undefined" mydata:specialfontid="undefined" mydata:id1="012" mydata:id2="012" mydata:companyname="Dhruv Parmar" mydata:companytagline="" version="1.1" xmlns="http://www.w3.org/2000/svg" xmlns:xlink="http://www.w3.org/1999/xlink" viewBox="0 25 550 380"><g fill="#101820" fill-rule="none" stroke="none" stroke-width="1" stroke-linecap="butt" stroke-linejoin="miter" stroke-miterlimit="10" stroke-dasharray="" stroke-dashoffset="0" font-family="none" font-weight="none" font-size="none" text-anchor="none" style="mix-blend-mode: normal"><g data-paper-data="{&quot;isGlobalGroup&quot;:true,&quot;bounds&quot;:{&quot;x&quot;:146.00004913160836,&quot;y&quot;:106,&quot;width&quot;:257.99990173678333,&quot;height&quot;:258}}"><g data-paper-data="{&quot;isIcon&quot;:&quot;true&quot;,&quot;iconType&quot;:&quot;icon&quot;,&quot;rawIconId&quot;:&quot;cac08b61-e4d2-4817-aa13-131c6f6b8302&quot;,&quot;source&quot;:&quot;inline&quot;,&quot;selectedEffects&quot;:{&quot;container&quot;:&quot;circle_simple_outline3&quot;,&quot;transformation&quot;:&quot;&quot;,&quot;pattern&quot;:&quot;&quot;},&quot;isDetailed&quot;:false,&quot;fillRule&quot;:&quot;nonzero&quot;,&quot;blockLetter&quot;:&quot;O&quot;,&quot;blockLetterId&quot;:0,&quot;relativeBoundsIconToContainer&quot;:{&quot;top&quot;:-0.004638216686265513,&quot;left&quot;:0.026927613264870826},&quot;widthRatioIconToContainer&quot;:0.6358976498012955,&quot;heightRatioIconToContainer&quot;:0.8153446455684457,&quot;bounds&quot;:{&quot;x&quot;:196.38942664936525,&quot;y&quot;:156.38947578097358,&quot;width&quot;:157.22124889508137,&quot;height&quot;:157.22114670126953},&quot;iconStyle&quot;:&quot;standalone&quot;,&quot;suitableAsStandaloneIcon&quot;:true}" fill-rule="nonzero"><path d="M329.22196,227.86136c0,35.76485 -19.74117,51.66034 -39.61053,57.30067v2.94835c1.66646,0.38457 2.82016,1.92284 2.82016,3.58931c0,2.05103 -3.7175,6.66585 -3.7175,6.66585c0,0 -3.7175,-4.61482 -3.7175,-6.66585c0,-1.66646 1.15371,-3.20474 2.82016,-3.58931v-2.4356c-5.64034,1.41009 -11.28067,2.05103 -16.40825,2.05103c-4.61482,0 -9.22964,-1.2819 -13.84446,-2.17922c-6.92223,-1.2819 -14.86997,-4.74301 -17.94652,-11.40886c0,-0.12819 -0.12819,-0.25638 -0.12819,-0.38457c-2.94835,-6.28128 1.2819,-13.45989 7.43498,-13.45989c0.38457,0 0.76913,0.12819 1.15371,0.12819c4.23025,0.51276 8.20412,1.15371 8.20412,1.15371c-6.28128,12.81894 2.94835,22.94591 18.07471,22.94591c4.10206,0 8.84507,-0.89732 13.45989,-3.20474v-8.71688c-4.48663,1.41009 -9.48601,2.82016 -9.99878,2.94835c-0.51276,0.12819 -1.02551,0.12819 -1.66646,0.12819h-0.64094c-8.33231,-1.92284 -10.51153,-11.28067 -10.51153,-19.48479v-21.66401c-2.05103,-2.4356 -4.99938,-5.64034 -8.4605,-5.64034c-1.2819,0 -3.07654,0.89732 -3.7175,2.17922c-0.25638,0.76913 -0.64094,1.41009 -1.02551,2.05103c-0.38457,0.76913 0.12819,-0.89732 0,-0.64094c0.64094,-3.46112 2.56379,-8.20412 4.10206,-11.40886c0.89732,-2.17922 2.4356,-4.23025 4.99938,-4.23025c1.41009,0 2.82016,0.51276 4.10206,1.41009v-23.84323c0,-2.05103 0.12819,-4.23025 -0.76913,-6.0249c-1.15371,-2.69198 -4.74301,-5.12757 -7.69137,-5.25576c4.99938,-1.92284 15.12635,-5.51215 13.84446,-4.74301c0.12819,0 0.12819,0 0.25638,-0.12819c0.89732,-0.25638 1.79465,-0.38457 2.69198,-0.38457c2.17922,0 4.8712,0.89732 6.15309,2.69198c1.41009,1.41009 1.92284,3.46112 1.92284,5.64034c0.12819,7.94775 0,65.88937 0,67.81221c0,10.25516 3.46112,14.35722 6.40947,15.89548v-95.50112c-2.4356,-0.76913 -4.23025,-1.02551 -4.99938,-1.15371c-1.2819,0 -2.4356,-0.12819 -3.58931,-0.12819c-38.84139,0 -40.37967,40.37967 -31.91917,46.53276c-0.38457,-0.12819 -4.23025,-0.64094 -8.20412,-1.2819c-6.28128,-0.89732 -10.63972,-7.43498 -9.7424,-14.35722c1.79465,-14.10084 11.53704,-33.84201 44.99449,-33.84201c1.41009,0 2.69198,0.12819 3.97387,0.25638c33.71382,0.64094 50.8912,27.68892 50.8912,57.42886zM312.04458,225.42576c0,-34.99571 -13.71626,-46.53276 -22.43315,-50.25025v105.24351c11.53704,-6.66585 22.43315,-22.43315 22.43315,-54.99327zM219.41392,179.41395c7.25236,-7.25236 15.58114,-12.86757 24.98632,-16.84564c9.73896,-4.11922 19.93886,-6.17883 30.59971,-6.17883c10.66098,0 20.86084,2.05961 30.59956,6.17883c9.40528,3.97804 17.73416,9.59325 24.98662,16.84564c7.25213,7.25231 12.86733,15.58109 16.8456,24.98633c4.11929,9.73896 6.17894,19.93886 6.17894,30.59971c0,10.66092 -2.05965,20.86074 -6.17894,30.59946c-3.97793,9.40528 -9.59314,17.73416 -16.8456,24.98662c-7.25247,7.25247 -15.58134,12.86767 -24.98662,16.8456c-9.73905,4.11929 -19.93891,6.17894 -30.59956,6.17894c-10.66088,0 -20.86079,-2.05965 -30.59971,-6.17894c-9.40519,-3.97793 -17.73396,-9.59314 -24.98632,-16.8456c-7.25236,-7.25247 -12.86758,-15.58134 -16.84566,-24.98662c-4.11922,-9.73872 -6.17883,-19.93854 -6.17883,-30.59946c0,-10.66085 2.05961,-20.86075 6.17883,-30.59971c3.97807,-9.40518 9.59329,-17.73396 16.84566,-24.98633zM223.68976,286.31039c6.69631,6.69617 14.38501,11.8802 23.06609,15.55209c8.98601,3.80073 18.40071,5.70109 28.2441,5.70109c9.84328,0 19.2579,-1.90036 28.24385,-5.70109c8.68125,-3.67189 16.36996,-8.85592 23.06613,-15.55209c6.69651,-6.69651 11.88071,-14.38523 15.5526,-23.06613c3.80073,-8.98629 5.70109,-18.40103 5.70109,-28.24425c0,-9.84332 -1.90036,-19.25802 -5.70109,-28.2441c-3.67189,-8.68098 -8.85608,-16.36968 -15.5526,-23.06609c-6.69617,-6.69639 -14.38489,-11.88047 -23.06613,-15.55225c-8.98595,-3.80077 -18.40056,-5.70115 -28.24385,-5.70115c-9.84335,0 -19.25805,1.90038 -28.2441,5.70115c-8.68102,3.67178 -16.36971,8.85586 -23.06609,15.55225c-6.69637,6.69638 -11.88045,14.38507 -15.55223,23.06609c-3.80077,8.98604 -5.70115,18.40074 -5.70115,28.2441c0,9.84321 1.90038,19.25797 5.70115,28.24425c3.67178,8.68092 8.85586,16.36962 15.55223,23.06613z" data-paper-data="{&quot;isPathIcon&quot;:true}"></path></g><g data-paper-data="{&quot;isPrimaryText&quot;:true}" fill-rule="nonzero"><path d="M163.30075,222.53173l0.77038,-4.26282c0.35684,-1.97455 0.95853,-3.59043 1.80507,-4.84762c0.84654,-1.25719 1.82253,-2.22896 2.92797,-2.91531c1.10545,-0.68635 2.27909,-1.1174 3.52094,-1.29316c1.24185,-0.17576 2.42561,-0.16192 3.55129,0.04151c1.49476,0.27013 2.78974,0.77572 3.88497,1.51676c1.09522,0.74104 1.9864,1.63577 2.67352,2.68418c0.68713,1.04842 1.14836,2.21323 1.38371,3.49443c0.23534,1.2812 0.23296,2.58614 -0.00716,3.91481l-0.94046,5.20396zM182.70422,220.6644c0.21677,-1.1995 0.22266,-2.36564 0.01767,-3.49843c-0.205,-1.13279 -0.61031,-2.15887 -1.21596,-3.07822c-0.60564,-0.91935 -1.40193,-1.70641 -2.38888,-2.36119c-0.98694,-0.65477 -2.15398,-1.10389 -3.50111,-1.34734c-1.08877,-0.19676 -2.18866,-0.20021 -3.29967,-0.01033c-1.11101,0.18988 -2.14169,0.59436 -3.09206,1.21345c-0.95037,0.61909 -1.77512,1.46575 -2.47424,2.53996c-0.69913,1.07421 -1.18876,2.38638 -1.4689,3.93649l-0.64031,3.54312l17.32809,3.13154z" data-paper-data="{&quot;glyphName&quot;:&quot;D&quot;,&quot;glyphIndex&quot;:0,&quot;firstGlyphOfWord&quot;:true,&quot;word&quot;:1}"></path><path d="M188.91061,200.95351l-17.8569,-8.75405l0.50766,-1.03555l8.36016,4.09843l5.38616,-10.98692l-8.36016,-4.09843l0.54481,-1.11132l17.81976,8.82982l-0.50766,1.03555l-8.51171,-4.17272l-5.38616,10.98692l8.51171,4.17272z" data-paper-data="{&quot;glyphName&quot;:&quot;H&quot;,&quot;glyphIndex&quot;:1,&quot;word&quot;:1}"></path><path d="M202.18021,177.86769l-14.77093,-13.31623l2.95707,-3.28011c0.46459,-0.51535 1.01521,-0.97208 1.65185,-1.37019c0.63664,-0.39812 1.31638,-0.669 2.03923,-0.81267c0.72285,-0.14366 1.47099,-0.11934 2.24443,0.07297c0.77344,0.19231 1.52926,0.62121 2.26746,1.28671c0.82177,0.74084 1.4162,1.64283 1.78329,2.70596c0.36709,1.06314 0.3299,2.20365 -0.11159,3.42153c0.24111,0.04062 0.64666,0.11588 1.21667,0.22578c0.57,0.1099 1.21039,0.23275 1.92115,0.36855c0.71076,0.1358 1.45846,0.27965 2.24309,0.43154c0.78463,0.15189 1.52222,0.29294 2.21278,0.42315c0.69056,0.13021 1.28391,0.24222 1.78005,0.33602c0.49614,0.09381 0.82435,0.14984 0.98463,0.16809l-0.94174,1.04462c-0.1338,-0.01963 -0.42542,-0.07423 -0.87487,-0.16382c-0.44945,-0.08958 -0.98601,-0.19457 -1.60967,-0.31497c-0.62366,-0.1204 -1.29749,-0.24815 -2.0215,-0.38327c-0.72401,-0.13512 -1.43129,-0.26778 -2.12185,-0.39799c-0.69056,-0.13021 -1.33094,-0.25306 -1.92115,-0.36855c-0.59021,-0.11549 -1.05952,-0.20404 -1.40794,-0.26567c-0.14794,0.22011 -0.30249,0.44056 -0.46367,0.66136c-0.16118,0.22079 -0.34222,0.44262 -0.54312,0.66547l-2.053,2.27727l6.3304,5.70696zM195.80518,170.52986l2.07183,-2.29816c0.6655,-0.7382 1.09611,-1.46091 1.29185,-2.16814c0.19573,-0.70723 0.24124,-1.36684 0.13651,-1.97884c-0.10473,-0.612 -0.3123,-1.15892 -0.62274,-1.64077c-0.31043,-0.48184 -0.63279,-0.87345 -0.96706,-1.1748c-0.4457,-0.40181 -0.94203,-0.69146 -1.48898,-0.86894c-0.54695,-0.17748 -1.11421,-0.23441 -1.70178,-0.17078c-0.58757,0.06363 -1.17559,0.24678 -1.76406,0.54945c-0.58847,0.30268 -1.14011,0.73954 -1.65493,1.3106l-2.09067,2.31906z" data-paper-data="{&quot;glyphName&quot;:&quot;R&quot;,&quot;glyphIndex&quot;:2,&quot;word&quot;:1}"></path><path d="M223.60897,158.58559c-0.79327,0.53423 -1.6159,0.90736 -2.46789,1.11939c-0.85199,0.21203 -1.68922,0.24456 -2.51168,0.09757c-0.82246,-0.14698 -1.61588,-0.47744 -2.38025,-0.99138c-0.76437,-0.51393 -1.45033,-1.22198 -2.05788,-2.12413l-7.41632,-11.01248l0.97992,-0.65993l7.36918,10.94248c0.5028,0.74661 1.0725,1.34077 1.70911,1.78249c0.6366,0.44172 1.29852,0.73638 1.98576,0.884c0.68724,0.14762 1.38805,0.13914 2.10243,-0.02544c0.71438,-0.16458 1.40599,-0.47208 2.07483,-0.92251c0.65328,-0.43995 1.19047,-0.95998 1.61155,-1.56008c0.42108,-0.6001 0.69631,-1.24893 0.82567,-1.94648c0.12936,-0.69756 0.10906,-1.42432 -0.06091,-2.18028c-0.16997,-0.75597 -0.50636,-1.50726 -1.00916,-2.25386l-7.36918,-10.94248l0.97992,-0.65993l7.41632,11.01248c0.60755,0.90215 1.00576,1.80398 1.19461,2.70549c0.18886,0.90151 0.19289,1.76358 0.0121,2.5862c-0.18079,0.82262 -0.52569,1.5862 -1.03471,2.29073c-0.50901,0.70453 -1.16016,1.32391 -1.95343,1.85814z" data-paper-data="{&quot;glyphName&quot;:&quot;U&quot;,&quot;glyphIndex&quot;:3,&quot;word&quot;:1}"></path><path d="M232.24609,131.13326c0.90585,1.03982 1.88328,2.17421 2.93227,3.40319c1.04899,1.22897 2.1085,2.48903 3.17851,3.78018c1.07001,1.29115 2.12658,2.55715 3.16969,3.798c1.04311,1.24086 2.02348,2.36931 2.94109,3.38536l0.51874,0.65602l-0.01245,-0.82721c0.09498,-1.35842 0.18494,-2.84876 0.26989,-4.47103c0.08495,-1.62227 0.16089,-3.27119 0.22781,-4.94675c0.06693,-1.67556 0.13993,-3.31854 0.219,-4.92892c0.07907,-1.61038 0.17197,-3.10667 0.27871,-4.48886l1.11918,-0.37841c-0.07874,0.99661 -0.15553,2.10143 -0.23038,3.31448c-0.07485,1.21304 -0.14944,2.48539 -0.22377,3.81703c-0.07434,1.33164 -0.14561,2.687 -0.21381,4.06606c-0.0682,1.37906 -0.13947,2.73441 -0.21381,4.06606c-0.07434,1.33164 -0.14893,2.60399 -0.22377,3.81703c-0.07485,1.21304 -0.14276,2.31487 -0.20373,3.30547c-0.66738,-0.74434 -1.39888,-1.57587 -2.19451,-2.49459c-0.79563,-0.91872 -1.62704,-1.88474 -2.49423,-2.89804c-0.86719,-1.0133 -1.74634,-2.0473 -2.63743,-3.10201c-0.89109,-1.05471 -1.77024,-2.08871 -2.63743,-3.10201c-0.86719,-1.0133 -1.69861,-1.97931 -2.49423,-2.89804c-0.79563,-0.91872 -1.52713,-1.75025 -2.19451,-2.49459z" data-paper-data="{&quot;glyphName&quot;:&quot;V&quot;,&quot;glyphIndex&quot;:4,&quot;lastGlyphOfWord&quot;:true,&quot;word&quot;:1}"></path><path d="M279.3567,132.96675l3.08382,0.2532c0.99056,0.08133 1.82596,-0.01002 2.50619,-0.27403c0.68023,-0.26402 1.23148,-0.61859 1.65375,-1.06373c0.42227,-0.44513 0.7308,-0.93724 0.92559,-1.47631c0.19479,-0.53907 0.31059,-1.03289 0.34742,-1.48144c0.05064,-0.61676 -0.01899,-1.20107 -0.20887,-1.75291c-0.18989,-0.55184 -0.48794,-1.04671 -0.89416,-1.4846c-0.40622,-0.43789 -0.9085,-0.7943 -1.50685,-1.06921c-0.59835,-0.27492 -1.28067,-0.44383 -2.04695,-0.50675l-3.11185,-0.2555zM277.38973,142.48598l1.62736,-19.82055l4.40145,0.36138c0.69152,0.05678 1.38862,0.2175 2.0913,0.48217c0.70268,0.26467 1.33035,0.64077 1.88302,1.12832c0.55267,0.48755 0.98713,1.0971 1.30338,1.82866c0.31625,0.73156 0.43371,1.59262 0.35238,2.58318c-0.05985,0.7289 -0.23497,1.42952 -0.52537,2.10187c-0.2904,0.67234 -0.71055,1.26347 -1.26044,1.77339c-0.54989,0.50992 -1.23543,0.8958 -2.0566,1.15766c-0.82117,0.26185 -1.78311,0.34751 -2.88581,0.25698l-3.05578,-0.25089l-0.69744,8.49452z" data-paper-data="{&quot;glyphName&quot;:&quot;P&quot;,&quot;glyphIndex&quot;:5,&quot;firstGlyphOfWord&quot;:true,&quot;word&quot;:2}"></path><path d="M309.63039,149.24069c-0.11007,-1.27333 -0.22327,-2.64595 -0.33959,-4.11786c-0.11633,-1.47191 -0.22304,-2.98995 -0.32013,-4.5541l-7.67318,-2.41719c-0.97608,1.22609 -1.92912,2.41028 -2.85914,3.55257c-0.93002,1.14229 -1.80503,2.20361 -2.62505,3.18394l-1.12683,-0.35497c0.6517,-0.7581 1.36569,-1.60471 2.14197,-2.53984c0.77628,-0.93513 1.58735,-1.91828 2.43321,-2.94946c0.84586,-1.03118 1.70324,-2.0833 2.57213,-3.15638c0.86889,-1.07307 1.72626,-2.1252 2.57213,-3.15638c0.84586,-1.03118 1.65834,-2.0188 2.43744,-2.96287c0.7791,-0.94407 1.4945,-1.79516 2.1462,-2.55326c0.08163,0.98911 0.17111,2.09375 0.26844,3.31391c0.09733,1.22016 0.19704,2.49514 0.29915,3.82495c0.10211,1.3298 0.20165,2.68337 0.29861,4.06071c0.09697,1.37734 0.1965,2.73091 0.29861,4.06071c0.10211,1.3298 0.20323,2.60031 0.30338,3.81153c0.10014,1.21122 0.19997,2.3142 0.2995,3.30895zM307.73239,130.26942c-0.87269,1.02272 -1.79285,2.13372 -2.76047,3.33298c-0.96762,1.19926 -1.96581,2.43313 -2.99456,3.70161l6.92196,2.18055c-0.09808,-1.62345 -0.20436,-3.20525 -0.31886,-4.7454c-0.11449,-1.54015 -0.22726,-2.97653 -0.33831,-4.30915l0.00364,-0.85412c-0.08085,0.13182 -0.17064,0.26082 -0.26937,0.38701c-0.09873,0.12619 -0.18007,0.22836 -0.24402,0.30652z" data-paper-data="{&quot;glyphName&quot;:&quot;A&quot;,&quot;glyphIndex&quot;:6,&quot;word&quot;:2}"></path><path d="M319.48625,153.82961l10.73044,-16.74395l3.71825,2.38286c0.58418,0.37438 1.12456,0.84318 1.62112,1.40641c0.49657,0.56323 0.87463,1.18973 1.1342,1.87949c0.25957,0.68976 0.35752,1.43186 0.29386,2.22631c-0.06366,0.79444 -0.36363,1.61007 -0.89989,2.44687c-0.59698,0.93154 -1.39001,1.66504 -2.37909,2.20052c-0.98908,0.53548 -2.1204,0.68469 -3.39396,0.44762c-0.00078,0.2445 -0.00893,0.6569 -0.02444,1.2372c-0.01551,0.58029 -0.03234,1.23214 -0.05047,1.95553c-0.01813,0.72339 -0.03818,1.48454 -0.06014,2.28343c-0.02197,0.79889 -0.0409,1.54961 -0.0568,2.25216c-0.0159,0.70255 -0.0297,1.30622 -0.04137,1.81101c-0.01168,0.5048 -0.01346,0.83775 -0.00534,0.99886l-1.18416,-0.75887c-0.00245,-0.13521 0.00389,-0.43183 0.01902,-0.88987c0.01512,-0.45804 0.03125,-1.00453 0.04838,-1.63948c0.01713,-0.63494 0.03334,-1.32059 0.04863,-2.05694c0.01529,-0.73635 0.03089,-1.45579 0.0468,-2.15834c0.0159,-0.70255 0.03273,-1.35439 0.05047,-1.95553c0.01774,-0.60114 0.02861,-1.07861 0.03262,-1.43242c-0.24128,-0.11008 -0.48398,-0.22663 -0.72809,-0.34967c-0.24411,-0.12303 -0.49248,-0.26549 -0.7451,-0.42739l-2.58146,-1.65434l-4.59876,7.17598zM325.6868,146.34376l2.60514,1.66952c0.8368,0.53627 1.62004,0.84332 2.34972,0.92116c0.72968,0.07784 1.38789,0.01521 1.97463,-0.18787c0.58674,-0.20308 1.09252,-0.49703 1.51732,-0.88186c0.4248,-0.38482 0.75862,-0.7667 1.00146,-1.14563c0.32379,-0.50524 0.52865,-1.04214 0.61461,-1.6107c0.08595,-0.56856 0.04965,-1.13752 -0.1089,-1.70686c-0.15855,-0.56934 -0.4351,-1.11965 -0.82965,-1.65091c-0.39455,-0.53126 -0.91549,-1.00432 -1.56283,-1.41917l-2.62882,-1.68469z" data-paper-data="{&quot;glyphName&quot;:&quot;R&quot;,&quot;glyphIndex&quot;:7,&quot;word&quot;:2}"></path><path d="M353.19544,153.04125c-0.32507,1.21597 -0.65997,2.54094 -1.00471,3.97491c-0.34474,1.43397 -0.68948,2.86795 -1.03422,4.30192c-0.34474,1.43397 -0.67698,2.82552 -0.99672,4.17465c-0.31974,1.34912 -0.60471,2.56085 -0.85489,3.63517c0.38782,-0.04324 0.94307,-0.10968 1.66575,-0.19933c0.72268,-0.08965 1.55245,-0.19282 2.48929,-0.30951c0.93684,-0.1167 1.94377,-0.23917 3.02078,-0.36741c1.07701,-0.12825 2.16064,-0.25609 3.25089,-0.38355c1.09025,-0.12745 2.15363,-0.24987 3.19014,-0.36725c1.03651,-0.11738 1.98229,-0.21694 2.83734,-0.29867l-15.54966,13.79576l-0.80273,-0.90478l12.14094,-10.77152c0.14028,-0.12445 0.28717,-0.24851 0.44068,-0.37218c0.15351,-0.12366 0.29339,-0.2415 0.41964,-0.35351c-1.10892,0.10641 -2.31247,0.24038 -3.61065,0.4019c-1.29818,0.16152 -2.60338,0.32926 -3.9156,0.50323c-1.31221,0.17396 -2.58121,0.34719 -3.80699,0.51968c-1.22578,0.17249 -2.32072,0.32291 -3.28483,0.45126c0.11265,-0.55119 0.26358,-1.24289 0.4528,-2.0751c0.18922,-0.83221 0.40185,-1.72281 0.6379,-2.67177c0.23605,-0.94897 0.4803,-1.92402 0.73275,-2.92514c0.25245,-1.00112 0.49122,-1.93997 0.7163,-2.81653c0.22508,-0.87656 0.43099,-1.65464 0.61773,-2.33424c0.18674,-0.6796 0.32309,-1.18288 0.40905,-1.50983c-0.12625,0.11201 -0.2568,0.24037 -0.39164,0.38507c-0.13484,0.1447 -0.27241,0.27928 -0.41268,0.40374l-12.14094,10.77152l-0.76539,-0.8627z" data-paper-data="{&quot;glyphName&quot;:&quot;M&quot;,&quot;glyphIndex&quot;:8,&quot;word&quot;:2}"></path><path d="M361.82889,203.14872c0.87051,-0.93579 1.81255,-1.9405 2.82614,-3.01414c1.01358,-1.07364 2.06783,-2.17109 3.16272,-3.29234l-3.35455,-7.31215c-1.56407,0.09858 -3.08161,0.18613 -4.55263,0.26266c-1.47102,0.07653 -2.84509,0.13952 -4.12221,0.18899l-0.49263,-1.07381c0.9994,-0.02522 2.10622,-0.06361 3.32048,-0.11519c1.21426,-0.05157 2.48746,-0.10956 3.81963,-0.17396c1.33216,-0.0644 2.68758,-0.13432 4.06627,-0.20974c1.37868,-0.07543 2.73411,-0.14534 4.06627,-0.20974c1.33216,-0.0644 2.60963,-0.12434 3.83241,-0.17983c1.22278,-0.05548 2.33386,-0.09583 3.33326,-0.12105c-0.6788,0.72405 -1.43801,1.53141 -2.27763,2.42208c-0.83962,0.89067 -1.7183,1.81989 -2.63603,2.78766c-0.91773,0.96777 -1.85481,1.94957 -2.81124,2.94541c-0.95643,0.99584 -1.89351,1.97764 -2.81124,2.94541c-0.91773,0.96777 -1.79215,1.89503 -2.62325,2.78179c-0.8311,0.88676 -1.58214,1.70069 -2.25312,2.44178zM374.62542,189.01505c-1.34389,0.03883 -2.78509,0.10168 -4.32359,0.18853c-1.5385,0.08685 -3.12317,0.17425 -4.75401,0.2622l3.02613,6.59628c1.13821,-1.16176 2.24003,-2.30167 3.30545,-3.41972c1.06542,-1.11805 2.05504,-2.16522 2.96886,-3.14151l0.63588,-0.57025c-0.152,0.02847 -0.3079,0.04841 -0.46772,0.05983c-0.15982,0.01142 -0.29015,0.01964 -0.39102,0.02464z" data-paper-data="{&quot;glyphName&quot;:&quot;A&quot;,&quot;glyphIndex&quot;:9,&quot;word&quot;:2}"></path><path d="M365.03702,213.53782l19.61544,-3.27673l0.72765,4.3559c0.11432,0.68437 0.12923,1.3996 0.04473,2.1457c-0.0845,0.7461 -0.29542,1.44677 -0.63276,2.10202c-0.33734,0.65525 -0.82191,1.22577 -1.45373,1.71156c-0.63182,0.4858 -1.43788,0.81057 -2.41819,0.97433c-1.09129,0.1823 -2.16726,0.08636 -3.22793,-0.28782c-1.06067,-0.37418 -1.93032,-1.11299 -2.60898,-2.21642c-0.18183,0.16346 -0.49311,0.43411 -0.93382,0.81193c-0.44072,0.37782 -0.93537,0.80268 -1.48395,1.27457c-0.54859,0.47189 -1.12645,0.96769 -1.73359,1.48739c-0.60714,0.5197 -1.17653,1.00932 -1.70817,1.46888c-0.53163,0.45955 -0.98853,0.85434 -1.37069,1.18435c-0.38216,0.33002 -0.63025,0.55208 -0.74428,0.66619l-0.23173,-1.38723c0.09862,-0.09252 0.32283,-0.28683 0.67263,-0.58292c0.3498,-0.29609 0.76587,-0.65078 1.24819,-1.06407c0.48232,-0.41329 1.00163,-0.86128 1.55792,-1.34396c0.55629,-0.48268 1.10025,-0.9538 1.63188,-1.41336c0.53163,-0.45955 1.02629,-0.88441 1.48395,-1.27457c0.45767,-0.39016 0.81903,-0.70244 1.08407,-0.93684c-0.08025,-0.25277 -0.15665,-0.51094 -0.2292,-0.7745c-0.07255,-0.26356 -0.13354,-0.54332 -0.18298,-0.83926l-0.50518,-3.02416l-8.40662,1.40431zM374.74807,213.1134l0.50982,3.05191c0.16376,0.98031 0.46155,1.76712 0.89338,2.36042c0.43183,0.5933 0.91987,1.03937 1.46412,1.33822c0.54425,0.29884 1.10155,0.47667 1.67191,0.5335c0.57036,0.05682 1.0775,0.04816 1.52141,-0.026c0.59188,-0.09887 1.12747,-0.30717 1.60674,-0.62489c0.47928,-0.31772 0.87682,-0.72635 1.19264,-1.22591c0.31581,-0.49955 0.53834,-1.07383 0.66758,-1.72283c0.12924,-0.649 0.13052,-1.35268 0.00384,-2.11103l-0.51445,-3.07965z" data-paper-data="{&quot;glyphName&quot;:&quot;R&quot;,&quot;glyphIndex&quot;:10,&quot;lastGlyphOfWord&quot;:true,&quot;word&quot;:2}"></path></g><g data-paper-data="{&quot;isMirroredPrimaryText&quot;:true}" fill-rule="nonzero"><path d="M181.95752,244.09663l0.77038,4.26282c0.35684,1.97455 0.35878,3.69881 0.00582,5.17278c-0.35296,1.47397 -0.92709,2.72587 -1.72238,3.75573c-0.79529,1.02985 -1.74383,1.84443 -2.84561,2.44373c-1.10178,0.5993 -2.21551,1.00067 -3.34119,1.2041c-1.49476,0.27013 -2.88479,0.24979 -4.17011,-0.06104c-1.28532,-0.31083 -2.43328,-0.83704 -3.4439,-1.57864c-1.01062,-0.7416 -1.85037,-1.67129 -2.51927,-2.78908c-0.66889,-1.11779 -1.12339,-2.34102 -1.36351,-3.66969l-0.94046,-5.20396zM164.43498,252.63723c0.21677,1.1995 0.61942,2.29394 1.20793,3.28333c0.58852,0.98939 1.32733,1.80869 2.21645,2.45791c0.88911,0.64922 1.91052,1.10779 3.06421,1.3757c1.15369,0.26792 2.4041,0.28015 3.75123,0.0367c1.08877,-0.19676 2.12029,-0.57851 3.09457,-1.14524c0.97427,-0.56673 1.79819,-1.30638 2.47175,-2.21895c0.67356,-0.91257 1.14981,-1.99434 1.42873,-3.2453c0.27892,-1.25096 0.27831,-2.65151 -0.00182,-4.20162l-0.64031,-3.54312l-17.32809,3.13154z" data-paper-data="{&quot;glyphName&quot;:&quot;D&quot;,&quot;glyphIndex&quot;:0,&quot;firstGlyphOfWord&quot;:true,&quot;word&quot;:1}"></path><path d="M170.22022,278.20916l17.8569,-8.75405l0.50766,1.03555l-8.36016,4.09843l5.38616,10.98692l8.36016,-4.09843l0.54481,1.11132l-17.89405,8.67828l-0.50766,-1.03555l8.51171,-4.17272l-5.38616,-10.98692l-8.51171,4.17272z" data-paper-data="{&quot;glyphName&quot;:&quot;H&quot;,&quot;glyphIndex&quot;:1,&quot;word&quot;:1}"></path><path d="M186.71984,306.07011l14.77093,-13.31623l2.95707,3.28011c0.46459,0.51535 0.862,1.1102 1.19221,1.78456c0.33022,0.67436 0.52943,1.37845 0.59765,2.11227c0.06822,0.73382 -0.03326,1.47545 -0.30444,2.22488c-0.27118,0.74944 -0.77587,1.4569 -1.51407,2.1224c-0.82177,0.74084 -1.78034,1.23891 -2.87571,1.49421c-1.09537,0.2553 -2.22594,0.10048 -3.39169,-0.46446c-0.06532,0.23562 -0.18207,0.63123 -0.35026,1.18683c-0.16819,0.5556 -0.35654,1.17987 -0.56504,1.8728c-0.2085,0.69293 -0.42882,1.42177 -0.66096,2.1865c-0.23214,0.76474 -0.44863,1.48381 -0.64948,2.15722c-0.20085,0.67341 -0.37356,1.25202 -0.51811,1.73581c-0.14456,0.4838 -0.23419,0.80446 -0.26891,0.962l-0.94174,-1.04462c0.03334,-0.13105 0.11778,-0.41547 0.25332,-0.85327c0.13554,-0.43779 0.29539,-0.96063 0.47957,-1.56851c0.18418,-0.60788 0.38086,-1.26491 0.59005,-1.97109c0.20919,-0.70617 0.41421,-1.39597 0.61506,-2.06938c0.20085,-0.67341 0.3892,-1.29768 0.56504,-1.8728c0.17584,-0.57512 0.31241,-1.03278 0.4097,-1.37296c-0.20365,-0.16988 -0.40695,-0.34639 -0.60992,-0.52951c-0.20296,-0.18313 -0.4049,-0.38611 -0.6058,-0.60897l-2.053,-2.27727l-6.3304,5.70696zM194.67699,300.48724l2.07183,2.29816c0.6655,0.7382 1.33986,1.24117 2.02308,1.50892c0.68322,0.26775 1.33461,0.38115 1.95415,0.34021c0.61954,-0.04094 1.18498,-0.19091 1.69632,-0.4499c0.51134,-0.25899 0.93414,-0.53917 1.26842,-0.84052c0.4457,-0.40181 0.78507,-0.86556 1.01811,-1.39125c0.23303,-0.52569 0.34826,-1.08403 0.34567,-1.67503c-0.00259,-0.591 -0.12401,-1.1948 -0.36427,-1.81139c-0.24026,-0.61659 -0.6178,-1.21041 -1.13262,-1.78147l-2.09067,-2.31906z" data-paper-data="{&quot;glyphName&quot;:&quot;R&quot;,&quot;glyphIndex&quot;:2,&quot;word&quot;:1}"></path><path d="M211.73029,329.05305c-0.79327,-0.53423 -1.4483,-1.15622 -1.96509,-1.866c-0.51679,-0.70977 -0.86169,-1.47335 -1.03471,-2.29073c-0.17301,-0.81739 -0.16509,-1.67683 0.02377,-2.57834c0.18886,-0.90151 0.58706,-1.80334 1.19461,-2.70549l7.41632,-11.01248l0.97992,0.65993l-7.36918,10.94248c-0.5028,0.74661 -0.83919,1.4979 -1.00916,2.25386c-0.16997,0.75597 -0.19417,1.48011 -0.07258,2.17243c0.12159,0.69232 0.39292,1.33853 0.81401,1.93863c0.42108,0.6001 0.96604,1.12536 1.63488,1.57579c0.65328,0.43995 1.33712,0.74222 2.0515,0.90679c0.71438,0.16458 1.41908,0.17568 2.1141,0.0333c0.69502,-0.14238 1.36083,-0.43443 1.99743,-0.87614c0.6366,-0.44172 1.20631,-1.03588 1.70911,-1.78249l7.36918,-10.94248l0.97992,0.65993l-7.41632,11.01248c-0.60755,0.90215 -1.29351,1.6102 -2.05788,2.12413c-0.76437,0.51393 -1.56167,0.84178 -2.39192,0.98352c-0.83024,0.14175 -1.66747,0.10922 -2.51168,-0.09757c-0.84421,-0.20679 -1.66296,-0.5773 -2.45623,-1.11153z" data-paper-data="{&quot;glyphName&quot;:&quot;U&quot;,&quot;glyphIndex&quot;:3,&quot;word&quot;:1}"></path><path d="M238.31867,320.90661c0.08897,1.37618 0.17743,2.87097 0.26538,4.48436c0.08795,1.61339 0.16539,3.25786 0.23232,4.93343c0.06693,1.67556 0.13843,3.32298 0.21449,4.94224c0.07607,1.61927 0.17047,3.11111 0.28321,4.47554l0.0142,0.83622l0.4921,-0.66503c0.89985,-1.02205 1.87577,-2.15201 2.92777,-3.38986c1.052,-1.23785 2.113,-2.50235 3.18301,-3.7935c1.07001,-1.29115 2.12508,-2.55271 3.16519,-3.78468c1.04011,-1.23197 2.02197,-2.36487 2.94559,-3.39868l1.11918,0.37841c-0.66738,0.74434 -1.39888,1.57587 -2.19451,2.49459c-0.79563,0.91872 -1.62704,1.88474 -2.49423,2.89804c-0.86719,1.0133 -1.74634,2.0473 -2.63743,3.10201c-0.89109,1.05471 -1.77024,2.08871 -2.63743,3.10201c-0.86719,1.0133 -1.69861,1.97931 -2.49423,2.89804c-0.79563,0.91872 -1.51825,1.75326 -2.16786,2.5036c-0.07874,-0.99661 -0.15553,-2.10143 -0.23038,-3.31448c-0.07485,-1.21304 -0.14944,-2.48539 -0.22377,-3.81703c-0.07434,-1.33164 -0.14561,-2.687 -0.21381,-4.06606c-0.0682,-1.37906 -0.13947,-2.73441 -0.21381,-4.06606c-0.07434,-1.33164 -0.14893,-2.60399 -0.22377,-3.81703c-0.07485,-1.21304 -0.15164,-2.31787 -0.23038,-3.31448z" data-paper-data="{&quot;glyphName&quot;:&quot;V&quot;,&quot;glyphIndex&quot;:4,&quot;lastGlyphOfWord&quot;:true,&quot;word&quot;:1}"></path><path d="M279.481,338.54714l3.08382,-0.2532c0.99056,-0.08133 1.79987,-0.30771 2.42793,-0.67915c0.62806,-0.37143 1.11409,-0.81118 1.4581,-1.31922c0.34401,-0.50805 0.56814,-1.04388 0.67239,-1.60751c0.10425,-0.56363 0.13796,-1.06972 0.10113,-1.51827c-0.05064,-0.61676 -0.21464,-1.18188 -0.49199,-1.69536c-0.27736,-0.51348 -0.65214,-0.9531 -1.12434,-1.31887c-0.4722,-0.36577 -1.02589,-0.63547 -1.66107,-0.80911c-0.63518,-0.17364 -1.33591,-0.229 -2.10219,-0.16609l-3.11185,0.2555zM279.09305,348.25973l-1.62736,-19.82055l4.40145,-0.36138c0.69152,-0.05678 1.4055,-0.01191 2.14194,0.1346c0.73644,0.14651 1.41705,0.4152 2.04184,0.80607c0.62479,0.39087 1.15286,0.9214 1.5842,1.59158c0.43134,0.67018 0.68768,1.50055 0.76901,2.49111c0.05985,0.7289 0.00135,1.44871 -0.1755,2.15941c-0.17685,0.7107 -0.49495,1.36245 -0.9543,1.95523c-0.45936,0.59278 -1.07277,1.08532 -1.84023,1.47761c-0.76746,0.39229 -1.70254,0.6337 -2.80524,0.72424l-3.05578,0.25089l0.69744,8.49452z" data-paper-data="{&quot;glyphName&quot;:&quot;P&quot;,&quot;glyphIndex&quot;:5,&quot;firstGlyphOfWord&quot;:true,&quot;word&quot;:2}"></path><path d="M315.88466,340.61301c-0.82001,-0.98033 -1.6995,-2.04024 -2.63846,-3.17972c-0.93896,-1.13948 -1.89648,-2.32226 -2.87255,-3.54835l-7.67318,2.41719c-0.0971,1.56416 -0.19934,3.08078 -0.30672,4.54988c-0.10738,1.46909 -0.21611,2.8403 -0.32618,4.11363l-1.12683,0.35497c0.09952,-0.99475 0.19935,-2.09773 0.2995,-3.30895c0.10014,-1.21122 0.20127,-2.48173 0.30338,-3.81153c0.10211,-1.3298 0.20165,-2.68337 0.29861,-4.06071c0.09697,-1.37734 0.1965,-2.73091 0.29861,-4.06071c0.10211,-1.3298 0.20183,-2.60479 0.29915,-3.82495c0.09733,-1.22016 0.19575,-2.32761 0.29527,-3.32236c0.63381,0.76373 1.34027,1.61764 2.11937,2.56171c0.7791,0.94407 1.59158,1.93169 2.43744,2.96287c0.84586,1.03118 1.70324,2.0833 2.57213,3.15638c0.86889,1.07307 1.72626,2.1252 2.57213,3.15638c0.84586,1.03118 1.65693,2.01433 2.43321,2.94946c0.77628,0.93513 1.49027,1.78174 2.14197,2.53984zM303.45581,326.15496c-0.12894,1.33826 -0.24618,2.77605 -0.35173,4.31338c-0.10555,1.53733 -0.21631,3.12054 -0.33227,4.74962l6.92196,-2.18055c-1.01087,-1.27411 -2.00458,-2.50939 -2.98115,-3.70584c-0.97657,-1.19644 -1.89225,-2.30884 -2.74706,-3.3372l-0.48656,-0.70198c0.0093,0.15436 0.00966,0.31153 0.00108,0.47153c-0.00858,0.15999 -0.01667,0.29034 -0.02427,0.39104z" data-paper-data="{&quot;glyphName&quot;:&quot;A&quot;,&quot;glyphIndex&quot;:6,&quot;word&quot;:2}"></path><path d="M330.71754,333.6959l-10.73044,-16.74395l3.71825,-2.38286c0.58418,-0.37438 1.23586,-0.6695 1.95503,-0.88538c0.71917,-0.21588 1.44631,-0.29766 2.18144,-0.24535c0.73512,0.05231 1.45029,0.27332 2.1455,0.66303c0.69521,0.38971 1.31095,1.00297 1.84722,1.83977c0.59698,0.93154 0.93214,1.95847 1.00547,3.08081c0.07334,1.12234 -0.2637,2.21255 -1.0111,3.27062c0.22182,0.10285 0.59311,0.28253 1.11386,0.53904c0.52075,0.25651 1.10597,0.54409 1.75565,0.86276c0.64968,0.31866 1.33285,0.65484 2.04952,1.00852c0.71667,0.35369 1.39084,0.6845 2.0225,0.99243c0.63167,0.30793 1.17438,0.57264 1.62814,0.79413c0.45376,0.22148 0.75553,0.36219 0.9053,0.42212l-1.18416,0.75887c-0.12386,-0.05426 -0.39072,-0.18393 -0.80056,-0.38902c-0.40984,-0.20508 -0.89963,-0.44803 -1.46936,-0.72883c-0.56973,-0.2808 -1.18592,-0.58195 -1.84855,-0.90345c-0.66263,-0.3215 -1.30978,-0.63621 -1.94145,-0.94415c-0.63167,-0.30793 -1.21688,-0.59552 -1.75565,-0.86276c-0.53877,-0.26724 -0.96804,-0.47658 -1.28782,-0.62801c-0.20081,0.17323 -0.40809,0.34505 -0.62185,0.51545c-0.21376,0.1704 -0.44695,0.33654 -0.69957,0.49844l-2.58146,1.65434l4.59876,7.17598zM326.50638,324.93514l2.60514,-1.66952c0.8368,-0.53627 1.44297,-1.11962 1.81851,-1.75007c0.37554,-0.63044 0.5936,-1.25463 0.65419,-1.87256c0.06059,-0.61793 0.0048,-1.20025 -0.16738,-1.74697c-0.17218,-0.54671 -0.37969,-1.00954 -0.62253,-1.38847c-0.32379,-0.50524 -0.72601,-0.91566 -1.20668,-1.23127c-0.48067,-0.31561 -1.01277,-0.5203 -1.59629,-0.61408c-0.58352,-0.09378 -1.19903,-0.0724 -1.84654,0.06414c-0.64751,0.13654 -1.29493,0.41224 -1.94227,0.82709l-2.62882,1.68469z" data-paper-data="{&quot;glyphName&quot;:&quot;R&quot;,&quot;glyphIndex&quot;:7,&quot;word&quot;:2}"></path><path d="M337.66682,303.18168c1.24603,0.17792 2.60146,0.35262 4.06629,0.52411c1.46483,0.17149 2.92966,0.34297 4.39448,0.51446c1.46483,0.17149 2.88604,0.33561 4.26365,0.49239c1.3776,0.15677 2.61464,0.29538 3.71111,0.41582c-0.08913,-0.3799 -0.22123,-0.92329 -0.39632,-1.63015c-0.17509,-0.70686 -0.37636,-1.51843 -0.60381,-2.4347c-0.22745,-0.91627 -0.46899,-1.90145 -0.7246,-2.95552c-0.25561,-1.05407 -0.51162,-2.11476 -0.76803,-3.18207c-0.25641,-1.06731 -0.50461,-2.10854 -0.74462,-3.12369c-0.24,-1.01515 -0.45151,-1.94234 -0.6345,-2.78157l15.54966,13.79576l-0.80273,0.90478l-12.14094,-10.77152c-0.14028,-0.12445 -0.28095,-0.25553 -0.42202,-0.39322c-0.14107,-0.13769 -0.27473,-0.26254 -0.40097,-0.37455c0.23774,1.08835 0.5141,2.26738 0.8291,3.53708c0.315,1.2697 0.63701,2.54563 0.96603,3.82778c0.32902,1.28215 0.65217,2.52148 0.96943,3.71799c0.31726,1.19651 0.59703,2.26574 0.8393,3.2077c-0.56068,-0.04619 -1.26544,-0.11366 -2.11426,-0.20241c-0.84883,-0.08875 -1.75841,-0.19379 -2.72873,-0.31513c-0.97033,-0.12134 -1.96753,-0.24771 -2.99159,-0.37912c-1.02407,-0.13141 -1.98467,-0.25665 -2.8818,-0.37572c-0.89713,-0.11907 -1.6942,-0.23084 -2.3912,-0.3353c-0.697,-0.10446 -1.21294,-0.1799 -1.54781,-0.2263c0.12625,0.11201 0.26924,0.22634 0.42898,0.34299c0.15974,0.11665 0.30974,0.2372 0.45002,0.36166l12.14094,10.77152l-0.76539,0.8627z" data-paper-data="{&quot;glyphName&quot;:&quot;M&quot;,&quot;glyphIndex&quot;:8,&quot;word&quot;:2}"></path><path d="M380.74845,275.5309c-1.27712,-0.04947 -2.65314,-0.1082 -4.12808,-0.1762c-1.47493,-0.068 -2.99443,-0.1513 -4.5585,-0.24987l-3.35455,7.31215c1.0949,1.12126 2.15109,2.21444 3.16859,3.27956c1.01749,1.06512 1.96149,2.06557 2.832,3.00135l-0.49263,1.07381c-0.67098,-0.74109 -1.42202,-1.55502 -2.25312,-2.44178c-0.8311,-0.88676 -1.70552,-1.81403 -2.62325,-2.78179c-0.91773,-0.96777 -1.85481,-1.94957 -2.81124,-2.94541c-0.95643,-0.99584 -1.89351,-1.97764 -2.81124,-2.94541c-0.91773,-0.96777 -1.79641,-1.89699 -2.63603,-2.78766c-0.83962,-0.89067 -1.59493,-1.70655 -2.2659,-2.44764c0.99158,0.04226 2.09875,0.09113 3.32153,0.14662c1.22278,0.05548 2.50025,0.11543 3.83241,0.17983c1.33216,0.0644 2.68758,0.13432 4.06627,0.20974c1.37868,0.07543 2.73411,0.14534 4.06627,0.20974c1.33216,0.0644 2.60537,0.12239 3.81963,0.17396c1.21426,0.05157 2.32108,0.08997 3.32048,0.11519zM361.68853,275.04999c0.906,0.99333 1.89367,2.04477 2.963,3.15429c1.06933,1.10953 2.16919,2.25369 3.29959,3.4325l3.02613,-6.59628c-1.62302,-0.10499 -3.20573,-0.19665 -4.74814,-0.27498c-1.54241,-0.07833 -2.98165,-0.14543 -4.31772,-0.20131l-0.847,-0.11004c0.12072,0.09664 0.23753,0.20181 0.35043,0.3155c0.1129,0.11369 0.20414,0.20713 0.27372,0.28031z" data-paper-data="{&quot;glyphName&quot;:&quot;A&quot;,&quot;glyphIndex&quot;:9,&quot;word&quot;:2}"></path><path d="M385.56803,259.89187l-19.61544,-3.27673l0.72765,-4.3559c0.11432,-0.68437 0.33269,-1.36561 0.65511,-2.04374c0.32242,-0.67812 0.74962,-1.2722 1.28162,-1.78223c0.53199,-0.51003 1.1757,-0.89207 1.93111,-1.14613c0.75541,-0.25406 1.62327,-0.29921 2.60358,-0.13545c1.09129,0.1823 2.07766,0.62275 2.95912,1.32136c0.88146,0.69861 1.46377,1.67997 1.74692,2.94407c0.22509,-0.09549 0.60743,-0.25026 1.14702,-0.46432c0.53959,-0.21406 1.14548,-0.45508 1.81765,-0.72304c0.67218,-0.26796 1.37981,-0.54902 2.12291,-0.84316c0.74309,-0.29414 1.44071,-0.57212 2.09285,-0.83392c0.65214,-0.26181 1.21254,-0.48665 1.68122,-0.67454c0.46867,-0.18788 0.77547,-0.31725 0.9204,-0.38811l-0.23173,1.38723c-0.12334,0.05545 -0.39853,0.16633 -0.82558,0.33265c-0.42705,0.16632 -0.9358,0.36652 -1.52627,0.6006c-0.59047,0.23408 -1.22719,0.48896 -1.91016,0.76463c-0.68297,0.27567 -1.35052,0.54441 -2.00266,0.80621c-0.65214,0.26181 -1.25802,0.50282 -1.81765,0.72304c-0.55963,0.22022 -1.00287,0.3981 -1.32971,0.53362c-0.00626,0.26513 -0.01793,0.53411 -0.03498,0.80694c-0.01706,0.27283 -0.0503,0.55722 -0.09974,0.85316l-0.50518,3.02416l8.40662,1.40431zM376.24628,257.13689l0.50982,-3.05191c0.16376,-0.98031 0.13787,-1.82119 -0.07768,-2.52263c-0.21554,-0.70145 -0.5321,-1.28192 -0.94966,-1.74144c-0.41757,-0.45951 -0.88681,-0.80883 -1.40774,-1.04795c-0.52093,-0.23912 -1.00335,-0.39576 -1.44726,-0.46991c-0.59188,-0.09887 -1.16609,-0.07597 -1.72261,0.06873c-0.55652,0.14469 -1.0653,0.40193 -1.52633,0.77171c-0.46103,0.36978 -0.85814,0.84055 -1.1913,1.41231c-0.33317,0.57176 -0.56309,1.23681 -0.68978,1.99517l-0.51445,3.07965z" data-paper-data="{&quot;glyphName&quot;:&quot;R&quot;,&quot;glyphIndex&quot;:10,&quot;lastGlyphOfWord&quot;:true,&quot;word&quot;:2}"></path></g><g data-paper-data="{&quot;isContainerElementsWrapper&quot;:true}" fill-rule="evenodd"><path d="M183.78324,143.78329c-11.90223,11.90222 -21.11726,25.57008 -27.64508,41.00357c-6.75874,15.9797 -10.13811,32.71743 -10.13811,50.21319c0,17.49544 3.37937,34.23294 10.13811,50.2125c6.52782,15.43388 15.74285,29.10196 27.64508,41.00426c11.90359,11.90295 25.57148,21.11808 41.00367,27.64537c15.98061,6.75854 32.71831,10.13782 50.21309,10.13782c17.49544,0 34.23294,-3.37927 50.2125,-10.13782c15.43453,-6.52861 29.10262,-15.74373 41.00426,-27.64537c11.90295,-11.90426 21.11808,-25.57235 27.64537,-41.00426c6.75854,-15.97956 10.13782,-32.71707 10.13782,-50.2125c0,-17.49596 -3.37927,-34.23369 -10.13782,-50.21319c-6.52861,-15.43431 -15.74373,-29.10217 -27.64537,-41.00357c-11.9023,-11.90249 -25.57038,-21.11752 -41.00426,-27.64508c-15.97891,-6.75881 -32.71641,-10.13821 -50.2125,-10.13821c-17.4957,0 -34.2334,3.3794 -50.21309,10.13821c-15.4334,6.52769 -29.10129,15.74272 -41.00367,27.64508zM148.54487,235.00005c0,-17.15165 3.31235,-33.55895 9.93706,-49.22191c6.39897,-15.12883 15.43253,-28.52731 27.1007,-40.19545c11.66838,-11.66836 25.0669,-20.70193 40.19555,-27.1007c15.66283,-6.62478 32.0701,-9.93716 49.22181,-9.93716c17.15152,0 33.55885,3.31239 49.22201,9.93716c15.1286,6.3989 28.52679,15.43247 40.19457,27.1007c11.66843,11.66814 20.70209,25.06663 27.101,40.19545c6.62491,15.6627 9.93736,32.07 9.93736,49.22191c0,17.15152 -3.31245,33.55885 -9.93736,49.22201c-6.39825,15.12795 -15.43191,28.52614 -27.101,40.19457c-11.66712,11.66843 -25.06531,20.70209 -40.19457,27.101c-15.66316,6.62491 -32.07049,9.93736 -49.22201,9.93736c-17.15073,0 -33.558,-3.31245 -49.22181,-9.93736c-15.12777,-6.39759 -28.52629,-15.43126 -40.19555,-27.101c-11.66849,-11.66777 -20.70206,-25.06596 -27.1007,-40.19457c-6.62471,-15.66316 -9.93706,-32.07049 -9.93706,-49.22201z" data-paper-data="{&quot;isBaseLogoContainer&quot;:true}"></path></g></g></g></svg></svg>